#define 220v_width 35
#define 220v_height 35
static unsigned char 220v_bits[] = {
   0x00, 0x00, 0x00, 0x00, 0x00, 0x00, 0x00, 0x00, 0x00, 0x00, 0x00, 0x00,
   0x00, 0x00, 0x00, 0x00, 0x00, 0x00, 0x00, 0x00, 0x00, 0x00, 0x00, 0x00,
   0x00, 0x00, 0x00, 0x00, 0x00, 0x00, 0x00, 0x00, 0xc0, 0x1f, 0x00, 0x00,
   0x00, 0xc0, 0x1f, 0x00, 0x00, 0x00, 0xc0, 0x1f, 0x00, 0xe0, 0x00, 0xc0,
   0xff, 0x01, 0xf0, 0x03, 0xe0, 0x1f, 0x00, 0xb8, 0x07, 0xf8, 0x1f, 0x00,
   0x1c, 0x1e, 0xfe, 0x1f, 0x00, 0x0c, 0xfc, 0xcf, 0xff, 0x01, 0x0c, 0xf0,
   0xc3, 0x1f, 0x00, 0x00, 0x00, 0xc0, 0x1f, 0x00, 0x00, 0x00, 0xc0, 0x1f,
   0x00, 0x00, 0x00, 0x00, 0x00, 0x00, 0x00, 0x00, 0x00, 0x00, 0x00, 0x00,
   0x00, 0x00, 0x00, 0x00, 0x00, 0x00, 0x00, 0x00, 0x00, 0x00, 0x00, 0x00,
   0x00, 0x00, 0xc0, 0x8f, 0x1f, 0x1f, 0x00, 0x60, 0xc8, 0x90, 0x20, 0x00,
   0x20, 0x48, 0x90, 0x20, 0x00, 0x00, 0x08, 0x90, 0x20, 0x00, 0x00, 0x0c,
   0x98, 0x20, 0x00, 0x00, 0x06, 0x8c, 0x20, 0x00, 0x00, 0x03, 0x86, 0x20,
   0x00, 0xc0, 0x81, 0x83, 0x20, 0x00, 0x60, 0xc0, 0x80, 0x20, 0x00, 0xe0,
   0xcf, 0x1f, 0x1f, 0x00, 0x00, 0x00, 0x00, 0x00, 0x00, 0x00, 0x00, 0x00,
   0x00, 0x00, 0x00, 0x00, 0x00, 0x00, 0x00 };
