#define Analog_screen_width 128
#define Analog_screen_height 64
static unsigned char Analog_screen_bits[] = {
   0xff, 0xff, 0xff, 0xff, 0xff, 0xff, 0xff, 0xff, 0xff, 0xff, 0xff, 0xff,
   0xff, 0xff, 0xff, 0xff, 0x01, 0x00, 0x08, 0x00, 0x00, 0x00, 0x00, 0x00,
   0x00, 0x00, 0x00, 0x00, 0x00, 0x40, 0x00, 0x80, 0x01, 0x00, 0xc8, 0x24,
   0x13, 0xc6, 0x11, 0x9d, 0x71, 0xe9, 0x5c, 0x74, 0xe9, 0x5c, 0x00, 0x80,
   0x01, 0x00, 0x28, 0xad, 0x14, 0x29, 0xb0, 0x45, 0x0a, 0x29, 0xc5, 0x16,
   0x4b, 0x42, 0x00, 0x80, 0x01, 0x00, 0x28, 0xb5, 0x14, 0xa9, 0x51, 0x4d,
   0x32, 0x29, 0x4d, 0x35, 0x4d, 0x4c, 0x00, 0x80, 0x01, 0x00, 0xe8, 0xa5,
   0x17, 0x29, 0x11, 0xc5, 0x43, 0xe9, 0x44, 0x14, 0x49, 0x50, 0x00, 0x80,
   0x01, 0x00, 0x28, 0xa5, 0x74, 0xc6, 0x11, 0x5d, 0x3a, 0x26, 0x5d, 0x74,
   0x49, 0x4e, 0x00, 0x80, 0x01, 0x00, 0x08, 0x00, 0x00, 0x00, 0x00, 0x00,
   0x00, 0x00, 0x00, 0x00, 0x00, 0x40, 0x00, 0x80, 0x01, 0x00, 0xf8, 0xff,
   0xff, 0xff, 0xff, 0xff, 0xff, 0xff, 0xff, 0xff, 0xff, 0x7f, 0x00, 0x80,
   0x01, 0x00, 0x00, 0x00, 0x00, 0x00, 0x00, 0x00, 0x00, 0x00, 0x00, 0x00,
   0x00, 0x00, 0x00, 0x80, 0x01, 0x00, 0x00, 0x00, 0x00, 0x00, 0x00, 0x00,
   0x00, 0x00, 0x00, 0x00, 0x00, 0x00, 0x00, 0x80, 0x01, 0x00, 0x00, 0x00,
   0x00, 0x00, 0x00, 0x00, 0x00, 0x00, 0x00, 0x00, 0x00, 0x00, 0x00, 0x80,
   0x01, 0x00, 0x00, 0x00, 0x00, 0x00, 0x00, 0x00, 0x00, 0x00, 0x00, 0x00,
   0x00, 0x00, 0x00, 0x80, 0x01, 0x00, 0x00, 0x00, 0x00, 0x00, 0x00, 0x00,
   0x00, 0x00, 0x00, 0x00, 0x00, 0x00, 0x00, 0x80, 0x01, 0x00, 0x00, 0x00,
   0x00, 0x00, 0x00, 0x00, 0x00, 0x00, 0x00, 0x00, 0x00, 0x00, 0x00, 0x80,
   0x01, 0x00, 0x00, 0x00, 0x00, 0x00, 0x00, 0x00, 0x00, 0x00, 0x00, 0x00,
   0x00, 0x00, 0x00, 0x80, 0x71, 0xcc, 0xdd, 0x9d, 0x44, 0x64, 0xe2, 0x8c,
   0x3b, 0x00, 0x00, 0x00, 0x00, 0x00, 0x44, 0x80, 0x91, 0x92, 0x48, 0xa4,
   0x44, 0x94, 0x42, 0x52, 0x08, 0x00, 0x00, 0x00, 0x00, 0x00, 0x44, 0x80,
   0x71, 0x92, 0xc8, 0xa4, 0x44, 0x94, 0x42, 0x52, 0x1b, 0x00, 0x00, 0x00,
   0x00, 0x00, 0x44, 0x80, 0x91, 0x9e, 0x48, 0x1c, 0x83, 0x92, 0x42, 0x5e,
   0x0a, 0x00, 0x00, 0x00, 0x00, 0x00, 0x28, 0x80, 0x71, 0x92, 0xc8, 0x25,
   0x03, 0x61, 0x4e, 0x92, 0x3b, 0x00, 0x00, 0x00, 0x00, 0x00, 0x10, 0x80,
   0x01, 0x00, 0x00, 0x00, 0x00, 0x00, 0x00, 0x00, 0x00, 0x00, 0x00, 0x00,
   0x00, 0x00, 0x00, 0x80, 0x01, 0x00, 0x00, 0x00, 0x00, 0x00, 0x00, 0x00,
   0x00, 0x00, 0x00, 0x00, 0x00, 0x00, 0x00, 0x80, 0x01, 0x00, 0x00, 0x00,
   0x00, 0x00, 0x00, 0x00, 0x00, 0x00, 0x00, 0x00, 0x00, 0x00, 0x00, 0x80,
   0x01, 0x00, 0x00, 0x00, 0x00, 0x00, 0x00, 0x00, 0x00, 0x00, 0x00, 0x00,
   0x00, 0x00, 0x00, 0x80, 0x01, 0x00, 0x00, 0x00, 0x00, 0x00, 0x00, 0x00,
   0x00, 0x00, 0x00, 0x00, 0x00, 0x00, 0x00, 0x80, 0xe1, 0x2e, 0x39, 0x73,
   0x1c, 0x2e, 0x9d, 0x13, 0x09, 0x00, 0x00, 0x00, 0x00, 0x00, 0x44, 0x80,
   0x11, 0x62, 0x85, 0x94, 0x02, 0x21, 0xa5, 0x14, 0x09, 0x00, 0x00, 0x00,
   0x00, 0x00, 0x44, 0x80, 0x61, 0xa6, 0x99, 0x94, 0x0c, 0x26, 0xa5, 0x14,
   0x09, 0x00, 0x00, 0x00, 0x00, 0x00, 0x44, 0x80, 0x81, 0x22, 0xa1, 0x74,
   0x10, 0x28, 0x9d, 0x13, 0x06, 0x00, 0x00, 0x00, 0x00, 0x00, 0x28, 0x80,
   0x71, 0x2e, 0x1d, 0x93, 0x0e, 0xc7, 0x84, 0x70, 0x06, 0x00, 0x00, 0x00,
   0x00, 0x00, 0x10, 0x80, 0x01, 0x00, 0x00, 0x00, 0x00, 0x00, 0x00, 0x00,
   0x00, 0x00, 0x00, 0x00, 0x00, 0x00, 0x00, 0x80, 0x01, 0x00, 0x00, 0x00,
   0x00, 0x00, 0x00, 0x00, 0x00, 0x00, 0x00, 0x00, 0x00, 0x00, 0x00, 0x80,
   0x01, 0x00, 0x00, 0x00, 0x00, 0x00, 0x00, 0x00, 0x00, 0x00, 0x00, 0x00,
   0x00, 0x00, 0x00, 0x80, 0x01, 0x00, 0x00, 0x00, 0x00, 0x00, 0x00, 0x00,
   0x00, 0x00, 0x00, 0x00, 0x00, 0x00, 0x00, 0x80, 0x01, 0x00, 0x00, 0x00,
   0x00, 0x00, 0x00, 0x00, 0x00, 0x00, 0x00, 0x00, 0x00, 0x00, 0x00, 0x80,
   0x71, 0xe9, 0x02, 0x71, 0xd1, 0x05, 0xee, 0x92, 0x33, 0x07, 0x00, 0x00,
   0x00, 0x00, 0x1c, 0x80, 0x11, 0x29, 0x02, 0x11, 0x51, 0x04, 0x21, 0x56,
   0x48, 0x09, 0x00, 0x00, 0x00, 0x00, 0x24, 0x80, 0x31, 0x69, 0x02, 0x31,
   0xd1, 0x04, 0x66, 0x9a, 0x49, 0x09, 0x00, 0x00, 0x00, 0x00, 0x24, 0x80,
   0x11, 0x29, 0x02, 0x11, 0x4a, 0x04, 0x28, 0x12, 0x4a, 0x07, 0x00, 0x00,
   0x00, 0x00, 0x1c, 0x80, 0x11, 0xe6, 0x0e, 0x77, 0xc4, 0x1d, 0xe7, 0xd2,
   0x31, 0x09, 0x00, 0x00, 0x00, 0x00, 0x24, 0x80, 0x01, 0x00, 0x00, 0x00,
   0x00, 0x00, 0x00, 0x00, 0x00, 0x00, 0x00, 0x00, 0x00, 0x00, 0x00, 0x80,
   0x01, 0x00, 0x00, 0x00, 0x00, 0x00, 0x00, 0x00, 0x00, 0x00, 0x00, 0x00,
   0x00, 0x00, 0x00, 0x80, 0x01, 0x00, 0x00, 0x00, 0x00, 0x00, 0x00, 0x00,
   0x00, 0x00, 0x00, 0x00, 0x00, 0x00, 0x00, 0x80, 0x01, 0x00, 0x00, 0x00,
   0x00, 0x00, 0x00, 0x00, 0x00, 0x00, 0x00, 0x00, 0x00, 0x00, 0x00, 0x80,
   0x01, 0x00, 0x00, 0x00, 0x00, 0x00, 0x00, 0x00, 0x00, 0x00, 0x00, 0x00,
   0x00, 0x00, 0x00, 0x80, 0x01, 0x00, 0x00, 0x00, 0x00, 0x00, 0x00, 0x00,
   0x00, 0x00, 0x00, 0x00, 0x00, 0x00, 0x00, 0x80, 0x01, 0x00, 0x00, 0x00,
   0x00, 0x00, 0x00, 0x00, 0x00, 0x00, 0x00, 0x00, 0x00, 0x00, 0x00, 0x80,
   0x01, 0x00, 0x00, 0x00, 0x00, 0x00, 0x00, 0x00, 0x00, 0x00, 0x00, 0x00,
   0x00, 0x00, 0x00, 0x80, 0x01, 0x00, 0x00, 0x00, 0x00, 0x00, 0x00, 0x00,
   0x00, 0x00, 0x00, 0x00, 0x00, 0x00, 0x00, 0x80, 0x01, 0x00, 0x00, 0x00,
   0x00, 0x00, 0x00, 0x00, 0x00, 0x00, 0x00, 0x00, 0x00, 0x00, 0x00, 0x80,
   0x01, 0x00, 0x00, 0x00, 0x00, 0x00, 0x00, 0x00, 0x00, 0x00, 0x00, 0x00,
   0x00, 0x00, 0x00, 0x80, 0x01, 0x00, 0x00, 0x00, 0x00, 0x00, 0x00, 0x00,
   0x00, 0x00, 0x00, 0x00, 0x00, 0x00, 0x00, 0x80, 0x01, 0x00, 0x00, 0x00,
   0x00, 0x00, 0x00, 0x00, 0x00, 0x00, 0x00, 0x00, 0x00, 0x00, 0x00, 0x80,
   0x01, 0x00, 0x00, 0x00, 0x00, 0x00, 0x00, 0x00, 0x00, 0x00, 0x00, 0x00,
   0x00, 0x00, 0x00, 0x80, 0x01, 0x00, 0x00, 0x00, 0x00, 0x00, 0x00, 0x00,
   0x00, 0x00, 0x00, 0x00, 0x00, 0x00, 0x00, 0x80, 0x01, 0x00, 0x00, 0x00,
   0x00, 0x00, 0x00, 0x00, 0x00, 0x00, 0x00, 0x00, 0x00, 0x00, 0x00, 0x80,
   0x01, 0x00, 0x00, 0x00, 0x00, 0x00, 0x00, 0x00, 0x00, 0x00, 0x00, 0x00,
   0x00, 0x00, 0x00, 0x80, 0x01, 0x00, 0x00, 0x00, 0x00, 0x00, 0x00, 0x00,
   0x00, 0x00, 0x00, 0x00, 0x00, 0x00, 0x00, 0x80, 0x01, 0x00, 0x00, 0x00,
   0x00, 0x00, 0x00, 0x00, 0x00, 0x00, 0x00, 0x00, 0x00, 0x00, 0x00, 0x80,
   0x01, 0x00, 0x00, 0x00, 0x00, 0x00, 0x00, 0x00, 0x00, 0x00, 0x00, 0x00,
   0x00, 0x00, 0x00, 0x80, 0x01, 0x00, 0x00, 0x00, 0x00, 0x00, 0x00, 0x00,
   0x00, 0x00, 0x00, 0x00, 0x00, 0x00, 0x00, 0x80, 0x01, 0x00, 0x00, 0x00,
   0x00, 0x00, 0x00, 0x00, 0x00, 0x00, 0x00, 0x00, 0x00, 0x00, 0x00, 0x80,
   0xff, 0xff, 0xff, 0xff, 0xff, 0xff, 0xff, 0xff, 0xff, 0xff, 0xff, 0xff,
   0xff, 0xff, 0xff, 0xff };
