#define fridge_width 35
#define fridge_height 35
static unsigned char fridge_bits[] = {
   0x00, 0x00, 0x00, 0x00, 0x00, 0x00, 0x00, 0x00, 0x00, 0x00, 0xfc, 0xff,
   0xff, 0xff, 0x01, 0x04, 0x00, 0x00, 0x00, 0x01, 0x04, 0x00, 0x00, 0x00,
   0x01, 0x04, 0x00, 0x02, 0x00, 0x01, 0x04, 0x40, 0x12, 0x00, 0x01, 0x04,
   0x80, 0x0a, 0x04, 0x01, 0x04, 0x02, 0x07, 0x02, 0x01, 0x04, 0x04, 0x02,
   0x01, 0x01, 0x04, 0x08, 0x82, 0x00, 0x01, 0x04, 0x10, 0x42, 0x00, 0x01,
   0x04, 0x20, 0x22, 0x00, 0x01, 0x24, 0x40, 0x12, 0x10, 0x01, 0x44, 0x80,
   0x0a, 0x08, 0x01, 0x84, 0x00, 0x07, 0x04, 0x01, 0xf4, 0xff, 0xff, 0x3f,
   0x01, 0x84, 0x00, 0x07, 0x08, 0x01, 0x44, 0x80, 0x0a, 0x10, 0x01, 0x24,
   0x40, 0x12, 0x00, 0x01, 0x04, 0x20, 0x22, 0x00, 0x01, 0x04, 0x10, 0x42,
   0x00, 0x01, 0x04, 0x08, 0x82, 0x00, 0x01, 0x04, 0x04, 0x02, 0x01, 0x01,
   0x04, 0x02, 0x02, 0x02, 0x01, 0x04, 0x01, 0x07, 0x04, 0x01, 0x04, 0x80,
   0x0a, 0x00, 0x01, 0x04, 0x40, 0x12, 0x00, 0x01, 0x04, 0x20, 0x22, 0x00,
   0x01, 0x04, 0x00, 0x00, 0x00, 0x01, 0x04, 0x00, 0x00, 0x00, 0x01, 0xfc,
   0xff, 0xff, 0xff, 0x01, 0x00, 0x00, 0x00, 0x00, 0x00, 0x00, 0x00, 0x00,
   0x00, 0x00, 0x00, 0x00, 0x00, 0x00, 0x00 };
