#define IO_status_screen_width 128
#define IO_status_screen_height 64
static unsigned char IO_status_screen_bits[] = {
   0xff, 0xff, 0xff, 0xff, 0xff, 0xff, 0xff, 0xff, 0xff, 0xff, 0xff, 0xff,
   0xff, 0xff, 0xff, 0xff, 0x01, 0x80, 0x00, 0x00, 0x00, 0x08, 0x00, 0x00,
   0x00, 0x40, 0x00, 0x00, 0x00, 0x00, 0x02, 0x80, 0x01, 0x80, 0x4a, 0x27,
   0xdd, 0x0b, 0x00, 0x00, 0x00, 0x40, 0x26, 0xdd, 0x49, 0xf7, 0x02, 0x80,
   0x01, 0x80, 0x5a, 0x29, 0x49, 0x08, 0x00, 0x00, 0x00, 0x40, 0x29, 0x49,
   0x4a, 0x12, 0x02, 0x80, 0x01, 0x80, 0x6a, 0x29, 0xc9, 0x0b, 0x00, 0x00,
   0x00, 0x40, 0x29, 0x49, 0x4a, 0xf2, 0x02, 0x80, 0x01, 0x80, 0x4a, 0x27,
   0x09, 0x0a, 0x00, 0x00, 0x00, 0x40, 0x29, 0xc9, 0x49, 0x82, 0x02, 0x80,
   0x01, 0x80, 0x4a, 0xc1, 0xc8, 0x0b, 0x00, 0x00, 0x00, 0x40, 0xc6, 0x48,
   0x30, 0xf2, 0x02, 0x80, 0x01, 0x80, 0x00, 0x00, 0x00, 0x08, 0x00, 0x00,
   0x00, 0x40, 0x00, 0x00, 0x00, 0x00, 0x02, 0x80, 0x01, 0x80, 0xff, 0xff,
   0xff, 0x0f, 0x00, 0x00, 0x00, 0xc0, 0xff, 0xff, 0xff, 0xff, 0x03, 0x80,
   0x01, 0x00, 0x00, 0x00, 0x00, 0x00, 0x00, 0x00, 0x00, 0x00, 0x00, 0x00,
   0x00, 0x00, 0x00, 0x80, 0x01, 0x00, 0x00, 0x00, 0x00, 0x00, 0x00, 0x00,
   0x00, 0x00, 0x00, 0x00, 0x00, 0x00, 0x00, 0x80, 0x01, 0x00, 0x00, 0x00,
   0x00, 0x00, 0x00, 0x00, 0x00, 0x00, 0x00, 0x00, 0x00, 0x00, 0x00, 0x80,
   0x01, 0x00, 0x00, 0x00, 0x00, 0x00, 0x00, 0x00, 0x00, 0x00, 0x00, 0x00,
   0x00, 0x00, 0x00, 0x80, 0x01, 0x00, 0x00, 0x00, 0x00, 0x00, 0x00, 0x00,
   0x00, 0x00, 0x00, 0x00, 0x00, 0x00, 0x00, 0x80, 0x71, 0x8c, 0x39, 0x00,
   0x00, 0x00, 0x3e, 0x00, 0x00, 0x4e, 0x8a, 0x0e, 0x00, 0x00, 0xf0, 0x81,
   0x91, 0x52, 0x4a, 0x00, 0x00, 0x00, 0x22, 0x00, 0x00, 0x52, 0xda, 0x12,
   0x00, 0x00, 0x10, 0x81, 0x91, 0x52, 0x4a, 0x00, 0x00, 0x00, 0x22, 0x00,
   0x00, 0x52, 0xaa, 0x12, 0x00, 0x00, 0x10, 0x81, 0x91, 0x52, 0x3a, 0x00,
   0x00, 0x00, 0x22, 0x00, 0x00, 0x4e, 0x8a, 0x0e, 0x00, 0x00, 0x10, 0x81,
   0x71, 0x8c, 0x49, 0x00, 0x00, 0x00, 0x3e, 0x00, 0x00, 0x82, 0x89, 0x02,
   0x00, 0x00, 0xf0, 0x81, 0x01, 0x00, 0x00, 0x00, 0x00, 0x00, 0x00, 0x00,
   0x00, 0x00, 0x00, 0x00, 0x00, 0x00, 0x00, 0x80, 0x01, 0x00, 0x00, 0x00,
   0x00, 0x00, 0x00, 0x00, 0x00, 0x00, 0x00, 0x00, 0x00, 0x00, 0x00, 0x80,
   0x01, 0x00, 0x00, 0x00, 0x00, 0x00, 0x00, 0x00, 0x00, 0x00, 0x00, 0x00,
   0x00, 0x00, 0x00, 0x80, 0x01, 0x00, 0x00, 0x00, 0x00, 0x00, 0x00, 0x00,
   0x00, 0x00, 0x00, 0x00, 0x00, 0x00, 0x00, 0x80, 0x71, 0x4e, 0xe1, 0x5d,
   0x7a, 0x00, 0x3e, 0x00, 0x00, 0xee, 0x74, 0xdc, 0x01, 0x00, 0xf0, 0x81,
   0x91, 0x52, 0x21, 0xc4, 0x0a, 0x00, 0x22, 0x00, 0x00, 0x22, 0x95, 0x42,
   0x00, 0x00, 0x10, 0x81, 0x91, 0x92, 0xe0, 0x4d, 0x7b, 0x00, 0x22, 0x00,
   0x00, 0x26, 0x95, 0xda, 0x00, 0x00, 0x10, 0x81, 0x71, 0x4e, 0x01, 0x45,
   0x42, 0x00, 0x22, 0x00, 0x00, 0xe2, 0x94, 0x52, 0x00, 0x00, 0x10, 0x81,
   0x11, 0x52, 0xe1, 0x5d, 0x7a, 0x01, 0x3e, 0x00, 0x00, 0x22, 0x75, 0xdc,
   0x01, 0x00, 0xf0, 0x81, 0x01, 0x00, 0x00, 0x00, 0x00, 0x00, 0x00, 0x00,
   0x00, 0x00, 0x00, 0x00, 0x00, 0x00, 0x00, 0x80, 0x01, 0x00, 0x00, 0x00,
   0x00, 0x00, 0x00, 0x00, 0x00, 0x00, 0x00, 0x00, 0x00, 0x00, 0x00, 0x80,
   0x01, 0x00, 0x00, 0x00, 0x00, 0x00, 0x00, 0x00, 0x00, 0x00, 0x00, 0x00,
   0x00, 0x00, 0x00, 0x80, 0x01, 0x00, 0x00, 0x00, 0x00, 0x00, 0x00, 0x00,
   0x00, 0x00, 0x00, 0x00, 0x00, 0x00, 0x00, 0x80, 0x91, 0x4b, 0x5d, 0x26,
   0x01, 0x00, 0x3e, 0x00, 0x00, 0x8c, 0x49, 0x11, 0x00, 0x00, 0xf0, 0x81,
   0x51, 0x58, 0x49, 0x69, 0x01, 0x00, 0x22, 0x00, 0x00, 0x52, 0x5a, 0x11,
   0x00, 0x00, 0x10, 0x81, 0x51, 0x6b, 0x49, 0xa9, 0x01, 0x00, 0x22, 0x00,
   0x00, 0x42, 0x6a, 0x11, 0x00, 0x00, 0x10, 0x81, 0x51, 0x4a, 0x49, 0x29,
   0x01, 0x00, 0x22, 0x00, 0x00, 0x52, 0x4a, 0x0a, 0x00, 0x00, 0x10, 0x81,
   0x91, 0x4b, 0x49, 0x26, 0x01, 0x00, 0x3e, 0x00, 0x00, 0x8c, 0x49, 0x24,
   0x00, 0x00, 0xf0, 0x81, 0x01, 0x00, 0x00, 0x00, 0x00, 0x00, 0x00, 0x00,
   0x00, 0x00, 0x00, 0x00, 0x00, 0x00, 0x00, 0x80, 0x01, 0x00, 0x00, 0x00,
   0x00, 0x00, 0x00, 0x00, 0x00, 0x00, 0x00, 0x00, 0x00, 0x00, 0x00, 0x80,
   0x01, 0x00, 0x00, 0x00, 0x00, 0x00, 0x00, 0x00, 0x00, 0x00, 0x00, 0x00,
   0x00, 0x00, 0x00, 0x80, 0x01, 0x00, 0x00, 0x00, 0x00, 0x00, 0x00, 0x00,
   0x00, 0x00, 0x00, 0x00, 0x00, 0x00, 0x00, 0x80, 0x11, 0x11, 0x41, 0x5c,
   0x74, 0x01, 0x3e, 0x00, 0x00, 0xde, 0x31, 0xe7, 0x18, 0x00, 0xf0, 0x81,
   0x11, 0x11, 0x41, 0x44, 0x14, 0x01, 0x22, 0x00, 0x00, 0x42, 0x4a, 0x29,
   0x14, 0x00, 0x10, 0x81, 0x51, 0x51, 0x41, 0x4c, 0x34, 0x01, 0x22, 0x00,
   0x00, 0x5e, 0x4a, 0x69, 0x10, 0x00, 0x10, 0x81, 0x51, 0x51, 0x41, 0x84,
   0x12, 0x01, 0x22, 0x00, 0x00, 0xd0, 0x79, 0x27, 0x10, 0x00, 0x10, 0x81,
   0xa1, 0xa4, 0xc4, 0x1d, 0x71, 0x07, 0x3e, 0x00, 0x00, 0x5e, 0x48, 0xe9,
   0x10, 0x00, 0xf0, 0x81, 0x01, 0x00, 0x00, 0x00, 0x00, 0x00, 0x00, 0x00,
   0x00, 0x00, 0x00, 0x00, 0x00, 0x00, 0x00, 0x80, 0x01, 0x00, 0x00, 0x00,
   0x00, 0x00, 0x00, 0x00, 0x00, 0x00, 0x00, 0x00, 0x00, 0x00, 0x00, 0x80,
   0x01, 0x00, 0x00, 0x00, 0x00, 0x00, 0x00, 0x00, 0x00, 0x00, 0x00, 0x00,
   0x00, 0x00, 0x00, 0x80, 0x01, 0x00, 0x00, 0x00, 0x00, 0x00, 0x00, 0x00,
   0x00, 0x00, 0x00, 0x00, 0x00, 0x00, 0x00, 0x80, 0xf1, 0x8e, 0x39, 0x07,
   0x00, 0x00, 0x3e, 0x00, 0x00, 0xde, 0x31, 0xe7, 0x18, 0x00, 0xf0, 0x81,
   0x11, 0x52, 0x4a, 0x01, 0x00, 0x00, 0x22, 0x00, 0x00, 0x42, 0x4a, 0x29,
   0x24, 0x00, 0x10, 0x81, 0xf1, 0x52, 0x4a, 0x03, 0x00, 0x00, 0x22, 0x00,
   0x00, 0x5e, 0x4a, 0x69, 0x10, 0x00, 0x10, 0x81, 0x81, 0xce, 0x3b, 0x01,
   0x00, 0x00, 0x22, 0x00, 0x00, 0xd0, 0x79, 0x27, 0x08, 0x00, 0x10, 0x81,
   0xf1, 0x42, 0x4a, 0x07, 0x00, 0x00, 0x3e, 0x00, 0x00, 0x5e, 0x48, 0xe9,
   0x3c, 0x00, 0xf0, 0x81, 0x01, 0x00, 0x00, 0x00, 0x00, 0x00, 0x00, 0x00,
   0x00, 0x00, 0x00, 0x00, 0x00, 0x00, 0x00, 0x80, 0x01, 0x00, 0x00, 0x00,
   0x00, 0x00, 0x00, 0x00, 0x00, 0x00, 0x00, 0x00, 0x00, 0x00, 0x00, 0x80,
   0x01, 0x00, 0x00, 0x00, 0x00, 0x00, 0x00, 0x00, 0x00, 0x00, 0x00, 0x00,
   0x00, 0x00, 0x00, 0x80, 0x01, 0x00, 0x00, 0x00, 0x00, 0x00, 0x00, 0x00,
   0x00, 0x00, 0x00, 0x00, 0x00, 0x00, 0x00, 0x80, 0x01, 0x00, 0x00, 0x00,
   0x00, 0x00, 0x00, 0x00, 0x00, 0x00, 0x00, 0x00, 0x00, 0x00, 0x00, 0x80,
   0x01, 0x00, 0x00, 0x00, 0x00, 0x00, 0x00, 0x00, 0x00, 0x00, 0x00, 0x00,
   0x00, 0x00, 0x00, 0x80, 0x01, 0x00, 0x00, 0x00, 0x00, 0x00, 0x00, 0x00,
   0x00, 0x00, 0x00, 0x00, 0x00, 0x00, 0x00, 0x80, 0x01, 0x00, 0x00, 0x00,
   0x00, 0x00, 0x00, 0x00, 0x00, 0x00, 0x00, 0x00, 0x00, 0x00, 0x00, 0x80,
   0xff, 0xff, 0xff, 0xff, 0xff, 0xff, 0xff, 0xff, 0xff, 0xff, 0xff, 0xff,
   0xff, 0xff, 0xff, 0xff };
