#define pump_width 35
#define pump_height 35
static unsigned char pump_bits[] = {
   0x00, 0x00, 0x00, 0x00, 0x00, 0x00, 0x00, 0x00, 0x00, 0x00, 0x00, 0x00,
   0x00, 0x00, 0x00, 0x00, 0x00, 0x00, 0x00, 0x00, 0x00, 0x00, 0x00, 0x00,
   0x00, 0x00, 0x00, 0x00, 0x00, 0x00, 0x00, 0x00, 0x00, 0x00, 0x00, 0x00,
   0x00, 0x00, 0x00, 0x00, 0x00, 0x00, 0x00, 0x00, 0x06, 0x00, 0xc0, 0xff,
   0xff, 0x07, 0x00, 0x30, 0x60, 0x00, 0x06, 0x00, 0x08, 0x80, 0x01, 0x06,
   0x00, 0x04, 0x06, 0x02, 0x06, 0x00, 0x04, 0x09, 0xfe, 0x07, 0x00, 0x02,
   0x09, 0x04, 0x06, 0x00, 0x02, 0x0a, 0x04, 0x00, 0x00, 0x01, 0xcc, 0x08,
   0x00, 0x00, 0xe1, 0x2f, 0x09, 0x00, 0x00, 0x11, 0x1b, 0x09, 0x00, 0x00,
   0x91, 0xfe, 0x08, 0x00, 0x00, 0x61, 0x06, 0x08, 0x00, 0x00, 0x02, 0x0a,
   0x04, 0x00, 0x06, 0x02, 0x12, 0x04, 0x00, 0xfe, 0x07, 0x12, 0x02, 0x00,
   0x06, 0x08, 0x0c, 0x01, 0x00, 0x06, 0x10, 0x80, 0x00, 0x00, 0x06, 0x60,
   0x40, 0x00, 0x00, 0xfe, 0xff, 0x3f, 0x00, 0x00, 0x06, 0x00, 0x00, 0x00,
   0x00, 0x00, 0x00, 0x00, 0x00, 0x00, 0x00, 0x00, 0x00, 0x00, 0x00, 0x00,
   0x00, 0x00, 0x00, 0x00, 0x00, 0x00, 0x00, 0x00, 0x00, 0x00, 0x00, 0x00,
   0x00, 0x00, 0x00, 0x00, 0x00, 0x00, 0x00 };
