#define water_20level_width 35
#define water_20level_height 35
static unsigned char water_20level_bits[] = {
   0x00, 0x00, 0x00, 0x00, 0x00, 0x00, 0x00, 0x00, 0x00, 0x00, 0x00, 0x00,
   0x00, 0x00, 0x00, 0x00, 0x00, 0x00, 0x00, 0x00, 0x00, 0x00, 0x00, 0x00,
   0x00, 0x00, 0x00, 0x00, 0x00, 0x00, 0xe0, 0x0f, 0x00, 0x00, 0x00, 0xc0,
   0x07, 0x00, 0x00, 0x00, 0x40, 0x04, 0x00, 0x00, 0x00, 0x40, 0x05, 0x00,
   0x00, 0x00, 0xfc, 0xff, 0xff, 0xff, 0x01, 0x04, 0x01, 0x00, 0x00, 0x01,
   0x04, 0x07, 0x00, 0x00, 0x01, 0x04, 0x01, 0x00, 0x00, 0x01, 0x04, 0x03,
   0x00, 0x00, 0x01, 0x04, 0x01, 0x00, 0x00, 0x01, 0x04, 0x07, 0x00, 0x00,
   0x01, 0x04, 0x01, 0x00, 0x00, 0x01, 0x04, 0x03, 0x00, 0x00, 0x01, 0x04,
   0x01, 0x00, 0x00, 0x01, 0x04, 0x07, 0x00, 0x00, 0x01, 0x04, 0x01, 0x00,
   0x00, 0x01, 0x04, 0x03, 0x00, 0x00, 0x01, 0x04, 0x01, 0x00, 0x00, 0x01,
   0x04, 0x01, 0x00, 0x00, 0x01, 0x04, 0x07, 0x07, 0x07, 0x01, 0x8c, 0x8f,
   0x8f, 0x8f, 0x01, 0xfc, 0xff, 0xff, 0xff, 0x01, 0xfc, 0xff, 0xff, 0xff,
   0x01, 0x00, 0x00, 0x00, 0x00, 0x00, 0x00, 0x00, 0x00, 0x00, 0x00, 0x00,
   0x00, 0x00, 0x00, 0x00, 0x00, 0x00, 0x00, 0x00, 0x00, 0x00, 0x00, 0x00,
   0x00, 0x00, 0x00, 0x00, 0x00, 0x00, 0x00 };
